<svg xmlns="http://www.w3.org/2000/svg" width="21.311" height="19.781" viewBox="0 0 21.311 19.781">
  <g id="group-solid" transform="translate(-4.46 -6.005)">
    <path id="Path_238" data-name="Path 238" d="M10.391,16.139H9.707a6.82,6.82,0,0,0-5.058,1.982l-.189.22v6.514H7.67v-3.7L8.1,20.67l.2-.228A8.653,8.653,0,0,1,12,18.192a5.184,5.184,0,0,1-1.613-2.053Z" transform="translate(0 -2.161)" fill="#fcfeff"/>
    <path id="Path_239" data-name="Path 239" d="M29.309,18.091a6.82,6.82,0,0,0-5.058-1.982,8.236,8.236,0,0,0-.857.047,5.184,5.184,0,0,1-1.573,1.927,8.582,8.582,0,0,1,3.933,2.36l.2.22.425.488v3.705h3.1V18.311Z" transform="translate(-3.704 -2.155)" fill="#fcfeff"/>
    <path id="Path_240" data-name="Path 240" d="M10.227,12.453h.244a5.074,5.074,0,0,1,2.447-4.948,3.217,3.217,0,1,0-2.69,4.98Z" transform="translate(-0.543 -0.009)" fill="#fcfeff"/>
    <path id="Path_241" data-name="Path 241" d="M23.8,11.854a5.146,5.146,0,0,1,0,.543,3.217,3.217,0,0,0,.456.039H24.4A3.217,3.217,0,1,0,21.47,7.574,5.137,5.137,0,0,1,23.8,11.854Z" transform="translate(-3.629 0)" fill="#fcfeff"/>
    <path id="Path_242" data-name="Path 242" d="M20.433,12.5A3.516,3.516,0,1,1,16.916,8.98,3.516,3.516,0,0,1,20.433,12.5Z" transform="translate(-1.907 -0.635)" fill="#fcfeff"/>
    <path id="Path_243" data-name="Path 243" d="M16.54,20.3a7.623,7.623,0,0,0-5.593,2.124l-.2.22v4.98a1.235,1.235,0,0,0,1.259,1.211h9.039a1.235,1.235,0,0,0,1.259-1.211V22.658l-.189-.236A7.536,7.536,0,0,0,16.54,20.3Z" transform="translate(-1.342 -3.048)" fill="#fcfeff"/>
  </g>
</svg>
