<svg xmlns="http://www.w3.org/2000/svg" width="19.707" height="17.897" viewBox="0 0 19.707 17.897">
  <path id="logout" d="M0,4.628V15.377a3.666,3.666,0,0,0,1.072,2.556,3.443,3.443,0,0,0,2.5,1.017H8.962V16.724H3.574a1.326,1.326,0,0,1-1.32-1.347V4.628a1.3,1.3,0,0,1,1.32-1.32H8.962V1.054H3.574A3.466,3.466,0,0,0,1.072,2.1,3.6,3.6,0,0,0,0,4.628ZM5.91,7.872v4.289a.939.939,0,0,0,.935.907h4.976V16.45a.752.752,0,0,0,.44.687,1.144,1.144,0,0,0,.275.027.663.663,0,0,0,.495-.192l6.46-6.46a.706.706,0,0,0,0-1.017L13.03,3.061a.713.713,0,0,0-1.209.495V6.965H6.845a.939.939,0,0,0-.935.907Z" transform="translate(0 -1.054)" fill="#fc5656"/>
</svg>
