<svg xmlns="http://www.w3.org/2000/svg" width="21.152" height="15.512" viewBox="0 0 21.152 15.512">
  <g id="view-filled" transform="translate(-1.126 -5.625)">
    <path id="Path_244" data-name="Path 244" d="M20.16,16.83a3.33,3.33,0,1,1-3.33-3.33A3.33,3.33,0,0,1,20.16,16.83Z" transform="translate(-5.129 -3.449)" fill="#fcfeff"/>
    <path id="Path_245" data-name="Path 245" d="M22.236,13.141A11.767,11.767,0,0,0,11.7,5.625,11.767,11.767,0,0,0,1.168,13.141a.705.705,0,0,0,0,.479A11.767,11.767,0,0,0,11.7,21.137a11.767,11.767,0,0,0,10.534-7.516.705.705,0,0,0,0-.479ZM11.7,17.964a4.583,4.583,0,1,1,4.583-4.583A4.583,4.583,0,0,1,11.7,17.964Z" fill="#fcfeff"/>
  </g>
</svg>
