<svg xmlns="http://www.w3.org/2000/svg" width="20.356" height="18.791" viewBox="0 0 20.356 18.791">
  <path id="download" d="M15.659,16.442a.794.794,0,1,0-.232.551.753.753,0,0,0,.232-.551Zm3.132,0a.794.794,0,1,0-.232.551A.753.753,0,0,0,18.79,16.442Zm1.566-2.74v3.915a1.17,1.17,0,0,1-1.174,1.174H1.174a1.133,1.133,0,0,1-.832-.343A1.133,1.133,0,0,1,0,17.617V13.7a1.133,1.133,0,0,1,.343-.832,1.133,1.133,0,0,1,.832-.343H6.863l1.652,1.664a2.362,2.362,0,0,0,3.327,0l1.664-1.664h5.676A1.17,1.17,0,0,1,20.356,13.7ZM16.38,6.741a.706.706,0,0,1-.171.856l-5.481,5.481a.769.769,0,0,1-1.1,0L4.147,7.6a.706.706,0,0,1-.171-.856A.731.731,0,0,1,4.7,6.264H7.829V.783A.753.753,0,0,1,8.061.232.753.753,0,0,1,8.612,0h3.132a.753.753,0,0,1,.551.232.753.753,0,0,1,.232.551V6.264h3.132a.731.731,0,0,1,.722.477Z" fill="#fcfeff"/>
</svg>
