<svg xmlns="http://www.w3.org/2000/svg" width="25.641" height="20.931" viewBox="0 0 25.641 20.931">
  <g id="Group_15" data-name="Group 15" transform="translate(0 0)">
    <path id="upload" d="M9.307,14.6h4.654V7.617h3.49L11.634,1.8,5.817,7.617h3.49V14.6ZM22.5,16.38c-.244-.26-1.874-2-2.34-2.459a1.748,1.748,0,0,0-1.212-.487H16.9l3.565,3.483H16.343a.319.319,0,0,0-.279.154l-.949,2.179H8.153L7.2,17.072a.321.321,0,0,0-.279-.154H2.8l3.564-3.484H4.322a1.754,1.754,0,0,0-1.213.486c-.465.456-2.1,2.2-2.34,2.459-.569.606-.882,1.089-.733,1.686L.69,21.641a1.559,1.559,0,0,0,1.457,1.089H21.125a1.559,1.559,0,0,0,1.457-1.089l.653-3.576c.147-.6-.165-1.079-.736-1.686Z" transform="translate(0 -1.8)" fill="#fcfeff"/>
    <path id="upload-2" data-name="upload" d="M8.464,11.506h3.53V6.212h2.647L10.229,1.8,5.817,6.212H8.464v5.294Z" transform="translate(11 -1.8)" fill="#fcfeff"/>
  </g>
</svg>
