<svg xmlns="http://www.w3.org/2000/svg" width="24.67" height="24.67" viewBox="0 0 24.67 24.67">
  <g id="password" transform="translate(0 12.343) rotate(-45)">
    <path id="Path_3" data-name="Path 3" d="M5.627,0a5.6,5.6,0,0,1,5.6,5.6,5.522,5.522,0,0,1-.243,1.625L17.456,13.7v3.735H13.721L7.252,10.963a5.6,5.6,0,0,1-7.228-4.9A5.46,5.46,0,0,1,1.051,2.328,5.6,5.6,0,0,1,5.627,0Zm0,9.961a4.358,4.358,0,0,0,1.245-.186l.716-.218.529.529,1.98,1.98.878-.859.878.878-.859.859.99.99.859-.859.878.878-.859.859,1.376,1.376h1.973V14.213l-6.1-6.12-.529-.529.18-.592A4.445,4.445,0,0,0,7.644,1.718,4.358,4.358,0,0,0,1.269,5.454a4.165,4.165,0,0,0,.678,2.49A4.358,4.358,0,0,0,5.627,9.961Z" transform="translate(0)" fill="#afafaf"/>
    <path id="Path_4" data-name="Path 4" d="M0,1.245A1.245,1.245,0,1,0,1.245,0,1.245,1.245,0,0,0,0,1.245Z" transform="translate(3.76 3.735)" fill="#afafaf"/>
  </g>
</svg>
